<svg id="Layer_1" data-name="Layer 1" xmlns="http://www.w3.org/2000/svg" viewBox="0 0 1340.9 314.15"><defs><style>.cls-1{fill:#4d4d59;}.cls-2{fill:#1a1a1e;}.cls-3{fill:#50ad36;}.cls-4{fill:#68d844;}.cls-5{fill:#876623;}</style></defs><title>bg</title><polygon class="cls-1" points="293.88 313.22 146.94 313.22 146.88 313.22 146.88 166.34 146.94 166.29 293.88 313.22"/><polygon class="cls-2" points="146.88 166.34 146.88 313.22 0 313.22 146.88 166.34"/><polygon class="cls-1" points="505.53 313.22 326.09 313.22 326.02 313.22 326.02 133.86 326.09 133.79 505.53 313.22"/><polygon class="cls-2" points="326.02 133.86 326.02 313.22 146.65 313.22 326.02 133.86"/><polygon class="cls-1" points="544.9 313.4 440.5 313.4 440.46 313.4 440.46 209.04 440.5 209 544.9 313.4"/><polygon class="cls-2" points="440.46 209.04 440.46 313.4 336.1 313.4 440.46 209.04"/><path class="cls-3" d="M582.5,454a60.5,60.5,0,0,1,0,121H582V454Z" transform="translate(-4.1 -454)"/><path class="cls-4" d="M582,454V575a60.49,60.49,0,0,1,0-121Z" transform="translate(-4.1 -454)"/><rect class="cls-5" x="555.9" y="243" width="46" height="70"/><path class="cls-3" d="M582.5,517a96.5,96.5,0,0,1,0,193c-.27,0-.53,0-.8,0V517C582,517,582.23,517,582.5,517Z" transform="translate(-4.1 -454)"/><path class="cls-4" d="M581.7,517V710a96.49,96.49,0,0,1,0-193Z" transform="translate(-4.1 -454)"/><polygon class="cls-1" points="823.02 313.9 736.01 313.9 735.98 313.9 735.98 226.92 736.01 226.89 823.02 313.9"/><polygon class="cls-2" points="735.98 226.92 735.98 313.9 649 313.9 735.98 226.92"/><polygon class="cls-1" points="1011.34 313.9 905.09 313.9 905.05 313.9 905.05 207.69 905.09 207.65 1011.34 313.9"/><polygon class="cls-2" points="905.05 207.69 905.05 313.9 798.84 313.9 905.05 207.69"/><polygon class="cls-1" points="1134.66 314 1072.84 314 1072.81 314 1072.81 252.21 1072.84 252.18 1134.66 314"/><polygon class="cls-2" points="1072.81 252.21 1072.81 314 1011.02 314 1072.81 252.21"/><path class="cls-3" d="M919,593a33.85,33.85,0,0,1,0,67.71h-.28V593Z" transform="translate(-4.1 -454)"/><path class="cls-4" d="M918.72,593v67.7a33.85,33.85,0,0,1,0-67.7Z" transform="translate(-4.1 -454)"/><rect class="cls-5" x="902.31" y="274.98" width="25.74" height="39.17"/><path class="cls-3" d="M919,628.25a54,54,0,0,1,0,108h-.45v-108Z" transform="translate(-4.1 -454)"/><path class="cls-4" d="M918.55,628.26v108a54,54,0,0,1,0-108Z" transform="translate(-4.1 -454)"/><path class="cls-3" d="M1248.5,455a60.5,60.5,0,0,1,0,121h-.5V455Z" transform="translate(-4.1 -454)"/><path class="cls-4" d="M1248,455V576a60.49,60.49,0,0,1,0-121Z" transform="translate(-4.1 -454)"/><rect class="cls-5" x="1221.9" y="244" width="46" height="70"/><path class="cls-3" d="M1248.5,518a96.5,96.5,0,0,1,0,193c-.27,0-.53,0-.8,0V518C1248,518,1248.23,518,1248.5,518Z" transform="translate(-4.1 -454)"/><path class="cls-4" d="M1247.7,518V711a96.49,96.49,0,0,1,0-193Z" transform="translate(-4.1 -454)"/></svg>